<svg width="800" height="800" viewBox="0 0 24 24" fill="none" xmlns="http://www.w3.org/2000/svg"><path fill-rule="evenodd" clip-rule="evenodd" d="M3.172 3.172C2 4.343 2 6.229 2 10v4c0 3.771 0 5.657 1.172 6.828C4.343 22 6.229 22 10 22h4c3.771 0 5.657 0 6.828-1.172C22 19.657 22 17.771 22 14v-4c0-2.84 0-4.61-.5-5.811V17a3.62 3.62 0 0 1-2.56-1.06l-.752-.752c-.722-.722-1.082-1.082-1.491-1.234a2 2 0 0 0-1.394 0c-.409.152-.77.512-1.49 1.234l-.114.113c-.585.585-.878.878-1.189.932a1 1 0 0 1-.699-.134c-.268-.166-.431-.547-.758-1.308L11 14.667c-.75-1.75-1.124-2.624-1.778-2.952a2 2 0 0 0-1.065-.205c-.729.062-1.401.735-2.747 2.08L3.5 15.5V2.887a2.85 2.85 0 0 0-.328.285Z" fill="#222"/><path d="M3 10c0-1.914.002-3.249.138-4.256.131-.978.372-1.496.74-1.865.37-.37.888-.61 1.866-.741C6.751 3.002 8.086 3 10 3h4c1.914 0 3.249.002 4.256.138.978.131 1.496.372 1.865.74.37.37.61.888.742 1.866C20.998 6.751 21 8.086 21 10v4c0 1.914-.002 3.249-.137 4.256-.132.978-.373 1.496-.742 1.865-.369.37-.887.61-1.865.742-1.007.135-2.342.137-4.256.137h-4c-1.914 0-3.249-.002-4.256-.137-.978-.132-1.496-.373-1.865-.742-.37-.369-.61-.887-.741-1.865C3.002 17.249 3 15.914 3 14v-4Z" stroke="#222" stroke-width="2"/><circle cx="15" cy="9" r="2" fill="#222"/></svg>